# Blender v2.78 (sub 0) OBJ File: '2.blend'
# www.blender.org
mtllib PUSHILIN_apple_tree.mtl
o apple_tree
v -0.458773 0.303756 -0.246248
v -0.566803 0.302360 -0.261582
v -0.500871 0.253266 -0.333346
v -0.411003 0.314275 -0.343793
v -0.421396 0.401076 -0.278484
v -0.517685 0.393711 -0.227676
v -0.585799 0.312017 -0.368604
v -0.489510 0.319381 -0.419412
v -0.440392 0.410733 -0.385506
v -0.506324 0.459827 -0.313742
v -0.596192 0.398818 -0.303295
v -0.548421 0.409337 -0.400840
v -0.080728 -0.124179 -0.449725
v -0.155685 -0.200461 -0.351667
v -0.010633 -0.200461 -0.348135
v 0.037551 -0.200461 -0.484998
v -0.077725 -0.200461 -0.573114
v -0.197150 -0.200461 -0.490711
v -0.083732 -0.323889 -0.326336
v 0.035694 -0.323889 -0.408740
v -0.005771 -0.323889 -0.547783
v -0.150824 -0.323889 -0.551315
v -0.199008 -0.323889 -0.414452
v -0.080728 -0.400171 -0.449725
v 0.298402 -0.155087 -0.052067
v 0.240234 -0.214284 0.024028
v 0.352798 -0.214284 0.026769
v 0.390190 -0.214284 -0.079440
v 0.300733 -0.214284 -0.147820
v 0.208056 -0.214284 -0.083873
v 0.296071 -0.310066 0.043685
v 0.388748 -0.310066 -0.020262
v 0.356571 -0.310066 -0.128163
v 0.244006 -0.310066 -0.130904
v 0.206614 -0.310066 -0.024695
v 0.298402 -0.369263 -0.052067
v -0.597588 -0.135907 0.084913
v -0.666175 -0.205706 0.174637
v -0.533449 -0.205706 0.177869
v -0.489360 -0.205706 0.052637
v -0.594840 -0.205706 -0.027990
v -0.704116 -0.205706 0.047410
v -0.600336 -0.318644 0.197816
v -0.491060 -0.318644 0.122415
v -0.529001 -0.318644 -0.004812
v -0.661726 -0.318644 -0.008044
v -0.705816 -0.318644 0.117188
v -0.597588 -0.388444 0.084913
v 0.222153 -0.144509 0.499376
v 0.161336 -0.107149 0.609242
v 0.283430 -0.066374 0.584846
v 0.348394 -0.164876 0.527904
v 0.266446 -0.266528 0.517109
v 0.150839 -0.230851 0.567379
v 0.249989 -0.104426 0.705672
v 0.365596 -0.140104 0.655402
v 0.355099 -0.263805 0.613539
v 0.233005 -0.304580 0.637935
v 0.168041 -0.206079 0.694877
v 0.294282 -0.226446 0.723405
v -0.230885 0.037205 -0.505467
v -0.230650 -0.014744 -0.648502
v -0.148695 0.108192 -0.612066
v -0.228078 0.189268 -0.510660
v -0.359093 0.116436 -0.484426
v -0.360682 -0.009650 -0.569616
v -0.227697 0.105213 -0.742096
v -0.226108 0.231298 -0.656905
v -0.356140 0.236393 -0.578020
v -0.438095 0.113456 -0.614456
v -0.358712 0.032381 -0.715862
v -0.355905 0.184444 -0.721055
v 0.360807 -0.130304 -0.414121
v 0.413587 -0.227131 -0.450844
v 0.476129 -0.131725 -0.428569
v 0.414381 -0.039456 -0.462975
v 0.313678 -0.077839 -0.506513
v 0.313188 -0.193828 -0.499015
v 0.499783 -0.196127 -0.522393
v 0.500273 -0.080138 -0.529891
v 0.399873 -0.046835 -0.578062
v 0.337332 -0.142241 -0.600337
v 0.399079 -0.234510 -0.565932
v 0.452654 -0.143663 -0.614785
v 0.446934 0.245424 -0.251261
v 0.555825 0.148815 -0.233629
v 0.534059 0.253815 -0.133615
v 0.494150 0.376015 -0.204158
v 0.491252 0.346535 -0.347770
v 0.529370 0.206119 -0.365983
v 0.670341 0.219697 -0.175628
v 0.632223 0.360114 -0.157416
v 0.605767 0.417418 -0.289769
v 0.627534 0.312418 -0.389783
v 0.667443 0.190218 -0.319240
v 0.714659 0.320808 -0.272137
v 0.549808 0.051336 0.100886
v 0.643136 -0.031465 0.115998
v 0.624481 0.058528 0.201717
v 0.590276 0.163262 0.141257
v 0.587792 0.137996 0.018171
v 0.620462 0.017649 0.002561
v 0.741284 0.029287 0.165709
v 0.708615 0.149634 0.181318
v 0.685940 0.198748 0.067881
v 0.704596 0.108755 -0.017837
v 0.738800 0.004020 0.042623
v 0.779268 0.115946 0.082993
v -0.528329 0.083337 0.167490
v -0.593866 0.061649 0.290701
v -0.644244 0.002814 0.172604
v -0.626947 0.095067 0.067072
v -0.565878 0.210917 0.119951
v -0.545433 0.190262 0.258159
v -0.732989 0.059974 0.266432
v -0.753433 0.080628 0.128223
v -0.705001 0.209242 0.095682
v -0.654623 0.268076 0.213779
v -0.671920 0.175823 0.319310
v -0.770538 0.187553 0.218893
v -0.208111 0.059729 0.468920
v -0.167615 0.002418 0.555598
v -0.270071 -0.019369 0.517314
v -0.316771 0.077239 0.486922
v -0.243175 0.158732 0.506423
v -0.150993 0.112489 0.548867
v -0.251248 -0.015493 0.627170
v -0.343430 0.030749 0.584726
v -0.326808 0.140821 0.577995
v -0.224353 0.162607 0.616279
v -0.177652 0.065999 0.646671
v -0.286313 0.083509 0.664673
v 0.219189 0.286640 0.357348
v 0.326419 0.256304 0.444111
v 0.197738 0.280975 0.496826
v 0.138197 0.383693 0.420338
v 0.230082 0.422504 0.320351
v 0.346408 0.343773 0.335044
v 0.311699 0.334607 0.560725
v 0.195373 0.413339 0.546032
v 0.215362 0.500808 0.436965
v 0.344043 0.476137 0.384249
v 0.403584 0.373418 0.460737
v 0.322593 0.470471 0.523728
v -0.191319 -1.096466 0.017940
v -0.122045 -0.222045 -0.008529
v -0.095181 -1.096466 -0.197096
v -0.068712 -0.222045 -0.127822
v 0.023716 -1.096466 0.114077
v -0.002752 -0.222045 0.044805
v 0.119855 -1.096466 -0.100958
v 0.050581 -0.222045 -0.074489
v -0.100878 -0.731524 0.114615
v -0.029100 -0.736271 -0.044691
v 0.125013 -0.686833 0.023446
v 0.053234 -0.682086 0.182753
v 0.722550 -0.090743 0.206192
v -0.550586 0.538173 -0.157548
v -0.498011 0.597787 -0.030685
v -0.435569 0.668510 -0.126575
v 0.123505 0.377110 -0.673156
v 0.061699 0.600669 -0.484630
v 0.323358 0.427535 -0.584699
v -0.333054 0.668510 -0.209383
v -0.437538 0.644697 -0.165051
v 0.179130 0.084381 0.735565
v 0.200191 0.094621 0.732530
v 0.169613 0.145860 0.724295
v 0.597698 0.171609 -0.447589
v 0.419343 0.389682 -0.539222
v 0.547352 0.362604 -0.403593
v 0.722561 -0.262175 -0.036922
v 0.729822 -0.213736 -0.144667
v 0.458760 -0.029918 0.603719
v 0.492351 -0.165574 0.543289
v 0.655236 -0.019084 0.440553
v 0.598211 -0.262175 -0.418475
v 0.663041 -0.049277 -0.407210
v 0.663554 0.150886 0.322095
v 0.402904 0.598427 0.115559
v 0.559047 0.475559 0.154274
v 0.536265 0.519135 0.019489
v 0.470348 0.583969 -0.062118
v -0.453625 0.540937 0.293710
v -0.478342 0.414915 0.432760
v -0.339484 0.497723 0.478173
v -0.254315 0.668504 0.347383
v -0.769727 -0.029918 -0.228698
v -0.792316 -0.029918 -0.144806
v -0.717273 0.218157 -0.294152
v -0.708995 0.109134 -0.373408
v -0.806837 -0.124539 -0.021387
v -0.781485 -0.143737 0.136995
v -0.572062 0.501670 -0.184727
v -0.717080 -0.071809 0.294627
v -0.432266 -0.142115 0.518833
v -0.618563 0.097648 0.415286
v -0.101019 0.059412 -0.759933
v -0.276784 -0.057727 -0.738011
v 0.378559 0.597828 -0.282744
v 0.364073 0.422565 -0.565949
v 0.018342 0.661389 -0.418013
v 0.520333 0.509264 -0.220513
v 0.455736 0.584937 -0.195809
v -0.268630 0.717620 -0.081622
v -0.109178 0.685634 -0.327508
v -0.182313 0.705988 0.236808
v -0.041356 0.681249 0.300156
v -0.080375 0.668510 0.338481
v 0.329086 0.089247 0.689062
v 0.347773 0.130045 0.667331
v 0.150921 0.202167 0.709988
v -0.113753 0.476952 0.570872
v -0.125950 0.542252 0.506305
v 0.612745 0.322453 0.290065
v 0.546327 0.169298 0.500563
v -0.034313 -0.231654 0.688686
v -0.072596 -0.583422 0.070572
v 0.006063 -0.560031 0.108618
v -0.064097 -0.666910 0.104328
v 0.014562 -0.643519 0.142374
v -0.173770 -0.498106 0.239645
v -0.109297 -0.480768 0.271046
v -0.172231 -0.563971 0.272852
v -0.107759 -0.546633 0.304254
v 0.074805 -0.741026 0.006443
v -0.007741 -0.760481 -0.025015
v 0.103332 -0.823480 -0.017420
v 0.020786 -0.842935 -0.048879
v 0.096112 -0.656162 -0.136497
v 0.047121 -0.668673 -0.156348
v 0.117276 -0.699566 -0.161373
v 0.068286 -0.712078 -0.181224
v 0.442309 -0.262175 0.503830
v -0.389932 -0.262175 -0.499124
v -0.102825 -0.262175 0.657917
v -0.406678 -0.262175 0.398919
v -0.198557 -0.262175 -0.702087
v -0.757502 -0.262175 -0.093193
v -0.109932 -0.262175 -0.743181
v -0.749385 -0.262175 0.024188
v 0.066555 -0.262175 -0.666835
v -0.678410 -0.262175 -0.190928
vt 0.9218 0.9405
vt 0.9218 0.9625
vt 0.9051 0.9517
vt 0.7837 0.9549
vt 0.7654 0.9431
vt 0.7837 0.9337
vt 0.9685 0.6017
vt 0.9685 0.6217
vt 0.9514 0.6150
vt 0.4632 0.9349
vt 0.4632 0.9563
vt 0.4454 0.9443
vt 0.9745 0.4130
vt 0.9594 0.3987
vt 0.9745 0.3925
vt 0.8644 0.5839
vt 0.8833 0.5743
vt 0.8833 0.5935
vt 0.9534 0.1757
vt 0.9603 0.1571
vt 0.9713 0.1757
vt 0.9778 0.6582
vt 0.9778 0.6766
vt 0.9616 0.6728
vt 0.8937 0.9571
vt 0.8747 0.9469
vt 0.8937 0.9370
vt 0.9799 0.7043
vt 0.9799 0.7261
vt 0.9674 0.7168
vt 0.8288 0.9431
vt 0.8288 0.9644
vt 0.8119 0.9517
vt 0.9660 0.1172
vt 0.9794 0.1052
vt 0.9794 0.1271
vt 0.7098 0.9521
vt 0.7265 0.9434
vt 0.7265 0.9648
vt 0.9803 0.0543
vt 0.9803 0.0759
vt 0.9674 0.0629
vt 0.7999 0.4239
vt 0.7844 0.4157
vt 0.7999 0.4025
vt 0.6233 0.9337
vt 0.6233 0.9549
vt 0.6050 0.9430
vt 0.9588 0.4698
vt 0.9742 0.4634
vt 0.9742 0.4839
vt 0.2093 0.9518
vt 0.1912 0.9404
vt 0.2093 0.9300
vt 0.9685 0.5588
vt 0.9501 0.5588
vt 0.9603 0.5399
vt 0.8463 0.9475
vt 0.8647 0.9388
vt 0.8647 0.9594
vt 0.4353 0.8641
vt 0.4353 0.8905
vt 0.4142 0.8714
vt 0.4055 0.8211
vt 0.4055 0.8474
vt 0.3806 0.8359
vt 0.8844 0.4084
vt 0.9026 0.3925
vt 0.9026 0.4216
vt 0.5013 0.9067
vt 0.4799 0.9067
vt 0.4945 0.8821
vt 0.1720 0.8322
vt 0.1720 0.8577
vt 0.1469 0.8435
vt 0.8971 0.8986
vt 0.8747 0.8932
vt 0.8971 0.8746
vt 0.7905 0.7991
vt 0.7905 0.8274
vt 0.7654 0.8125
vt 0.6007 0.7936
vt 0.6007 0.8226
vt 0.5755 0.8082
vt 0.8238 0.3335
vt 0.8480 0.3226
vt 0.8480 0.3497
vt 0.0854 0.8621
vt 0.0854 0.8865
vt 0.0620 0.8794
vt 0.8483 0.3577
vt 0.8483 0.3845
vt 0.8238 0.3735
vt 0.9117 0.1052
vt 0.9117 0.1291
vt 0.8899 0.1244
vt 0.1284 0.8830
vt 0.1047 0.8661
vt 0.1284 0.8582
vt 0.3104 0.7993
vt 0.3104 0.8284
vt 0.2861 0.8136
vt 0.6325 0.8045
vt 0.6577 0.7899
vt 0.6577 0.8190
vt 0.8734 0.6582
vt 0.8734 0.6873
vt 0.8528 0.6736
vt 0.8671 0.1875
vt 0.8430 0.1711
vt 0.8671 0.1620
vt 0.8804 0.0543
vt 0.8804 0.0834
vt 0.8603 0.0678
vt 0.1703 0.8894
vt 0.1469 0.8721
vt 0.1703 0.8657
vt 0.8889 0.7491
vt 0.8889 0.7782
vt 0.8695 0.7645
vt 0.9530 0.5115
vt 0.9597 0.4922
vt 0.9704 0.5115
vt 0.9137 0.5732
vt 0.9137 0.5936
vt 0.8943 0.5846
vt 0.2370 0.9727
vt 0.2412 0.9544
vt 0.2544 0.9727
vt 0.6491 0.9748
vt 0.6325 0.9748
vt 0.6438 0.9557
vt 0.0371 0.9558
vt 0.0191 0.9476
vt 0.0371 0.9344
vt 0.9562 0.3694
vt 0.9704 0.3587
vt 0.9704 0.3813
vt 0.9421 0.5704
vt 0.9421 0.5924
vt 0.9227 0.5808
vt 0.9379 0.0417
vt 0.9183 0.0304
vt 0.9379 0.0191
vt 0.4142 0.9392
vt 0.4330 0.9307
vt 0.4330 0.9518
vt 0.9634 0.3090
vt 0.9481 0.2977
vt 0.9634 0.2864
vt 0.9519 0.9335
vt 0.9344 0.9223
vt 0.9519 0.9109
vt 0.1639 0.9576
vt 0.1639 0.9762
vt 0.1469 0.9725
vt 0.4799 0.9582
vt 0.4982 0.9449
vt 0.4982 0.9642
vt 0.9439 0.7491
vt 0.9439 0.7717
vt 0.9250 0.7602
vt 0.5298 0.9143
vt 0.5298 0.9369
vt 0.5103 0.9256
vt 0.9619 0.0191
vt 0.9619 0.0416
vt 0.9459 0.0310
vt 0.9593 0.0543
vt 0.9593 0.0769
vt 0.9430 0.0654
vt 0.7566 0.9651
vt 0.7379 0.9525
vt 0.7566 0.9463
vt 0.9676 0.3226
vt 0.9676 0.3452
vt 0.9528 0.3336
vt 0.8007 0.5128
vt 0.8007 0.5354
vt 0.7857 0.5247
vt 0.0191 0.9264
vt 0.0269 0.9036
vt 0.0395 0.9264
vt 0.6756 0.8798
vt 0.6974 0.8697
vt 0.6974 0.8948
vt 0.4999 0.9147
vt 0.4999 0.9368
vt 0.4799 0.9193
vt 0.9179 0.7144
vt 0.9347 0.7043
vt 0.9347 0.7305
vt 0.3454 0.9031
vt 0.3241 0.8935
vt 0.3454 0.8780
vt 0.7309 0.9353
vt 0.7098 0.9353
vt 0.7258 0.9140
vt 0.5103 0.8606
vt 0.5326 0.8473
vt 0.5326 0.8740
vt 0.0421 0.8634
vt 0.0191 0.8501
vt 0.0421 0.8368
vt 0.3087 0.8711
vt 0.3087 0.8954
vt 0.2861 0.8852
vt 0.6539 0.8967
vt 0.6539 0.9191
vt 0.6325 0.9126
vt 0.7654 0.8797
vt 0.7878 0.8697
vt 0.7878 0.8943
vt 0.9355 0.1052
vt 0.9401 0.1266
vt 0.9197 0.1266
vt 0.7288 0.2456
vt 0.7504 0.2299
vt 0.7504 0.2528
vt 0.8787 0.3577
vt 0.8787 0.3844
vt 0.8564 0.3708
vt 0.3092 0.8631
vt 0.2861 0.8497
vt 0.3092 0.8364
vt 0.6986 0.2447
vt 0.7208 0.2299
vt 0.7208 0.2526
vt 0.9103 0.0191
vt 0.9103 0.0457
vt 0.8911 0.0322
vt 0.2591 0.9164
vt 0.2370 0.9016
vt 0.2591 0.8943
vt 0.4454 0.9212
vt 0.4663 0.9047
vt 0.4663 0.9269
vt 0.9220 0.2412
vt 0.9220 0.2678
vt 0.9043 0.2553
vt 0.7312 0.8813
vt 0.7312 0.9060
vt 0.7098 0.8909
vt 0.8963 0.2412
vt 0.8963 0.2674
vt 0.8758 0.2550
vt 0.9222 0.8264
vt 0.9045 0.8131
vt 0.9222 0.8001
vt 0.8561 0.3357
vt 0.8788 0.3226
vt 0.8788 0.3489
vt 0.9164 0.6582
vt 0.9288 0.6807
vt 0.9082 0.6807
vt 0.4003 0.9140
vt 0.3806 0.8992
vt 0.4003 0.8881
vt 0.8608 0.0328
vt 0.8831 0.0191
vt 0.8831 0.0451
vt 0.6237 0.9257
vt 0.6050 0.9084
vt 0.6237 0.9015
vt 0.9350 0.0543
vt 0.9350 0.0806
vt 0.9183 0.0682
vt 0.1469 0.9202
vt 0.1581 0.8975
vt 0.1678 0.9202
vt 0.9264 0.9109
vt 0.9264 0.9325
vt 0.9051 0.9170
vt 0.9268 0.8570
vt 0.9385 0.8344
vt 0.9455 0.8570
vt 0.0417 0.8715
vt 0.0417 0.8956
vt 0.0191 0.8847
vt 0.2123 0.8635
vt 0.2123 0.8898
vt 0.1912 0.8763
vt 0.9454 0.1797
vt 0.9267 0.1750
vt 0.9454 0.1571
vt 0.8764 0.3925
vt 0.8764 0.4188
vt 0.8536 0.4057
vt 0.4010 0.9432
vt 0.3806 0.9387
vt 0.4010 0.9221
vt 0.9098 0.7302
vt 0.8896 0.7153
vt 0.9098 0.7043
vt 0.9169 0.7491
vt 0.9169 0.7742
vt 0.8969 0.7584
vt 0.3241 0.9167
vt 0.3446 0.9112
vt 0.3446 0.9332
vt 0.8735 0.5399
vt 0.8863 0.5663
vt 0.8644 0.5663
vt 0.6756 0.7743
vt 0.7016 0.7608
vt 0.7016 0.7903
vt 0.1311 0.7886
vt 0.1311 0.8165
vt 0.1047 0.8032
vt 0.0620 0.8085
vt 0.0876 0.7919
vt 0.0876 0.8205
vt 0.8455 0.4224
vt 0.8238 0.4043
vt 0.8455 0.3925
vt 0.5669 0.7927
vt 0.5410 0.7766
vt 0.5669 0.7641
vt 0.8898 0.4564
vt 0.9078 0.4320
vt 0.9112 0.4564
vt 0.7543 0.4239
vt 0.7301 0.4069
vt 0.7543 0.3939
vt 0.8323 0.4922
vt 0.8323 0.5208
vt 0.8088 0.5022
vt 0.8927 0.1875
vt 0.8751 0.1702
vt 0.8927 0.1571
vt 0.8282 0.7307
vt 0.8419 0.7043
vt 0.8529 0.7307
vt 0.8704 0.5018
vt 0.8895 0.4922
vt 0.8895 0.5216
vt 0.0431 0.7996
vt 0.0431 0.8287
vt 0.0191 0.8108
vt 0.8711 0.2151
vt 0.8892 0.1972
vt 0.8892 0.2274
vt 0.2175 0.7946
vt 0.2175 0.8220
vt 0.1912 0.8071
vt 0.3120 0.7627
vt 0.3120 0.7913
vt 0.2861 0.7751
vt 0.8350 0.1884
vt 0.8096 0.1884
vt 0.8211 0.1620
vt 0.6242 0.4101
vt 0.6496 0.3942
vt 0.6496 0.4246
vt 0.8678 0.2696
vt 0.8465 0.2612
vt 0.8678 0.2412
vt 0.0191 0.7772
vt 0.0455 0.7625
vt 0.0455 0.7916
vt 0.6524 0.9271
vt 0.6524 0.9477
vt 0.6325 0.9357
vt 0.3653 0.9445
vt 0.3714 0.9641
vt 0.3534 0.9641
vt 0.0819 0.9479
vt 0.0620 0.9393
vt 0.0819 0.9273
vt 0.5103 0.9646
vt 0.5163 0.9449
vt 0.5283 0.9646
vt 0.9588 0.4436
vt 0.9725 0.4320
vt 0.9725 0.4553
vt 0.9401 0.2864
vt 0.9401 0.3084
vt 0.9203 0.2987
vt 0.0790 0.9744
vt 0.0620 0.9744
vt 0.0650 0.9559
vt 0.9369 0.6704
vt 0.9536 0.6582
vt 0.9536 0.6815
vt 0.6957 0.9260
vt 0.6756 0.9146
vt 0.6957 0.9029
vt 0.8463 0.9191
vt 0.8665 0.9079
vt 0.8665 0.9307
vt 0.3725 0.9131
vt 0.3725 0.9364
vt 0.3534 0.9247
vt 0.7854 0.9256
vt 0.7654 0.9138
vt 0.7854 0.9023
vt 0.9513 0.4159
vt 0.9345 0.4042
vt 0.9513 0.3925
vt 0.9711 0.8746
vt 0.9711 0.8949
vt 0.9549 0.8907
vt 0.9469 0.8746
vt 0.9469 0.8979
vt 0.9295 0.8869
vt 0.9530 0.2167
vt 0.9651 0.1972
vt 0.9703 0.2167
vt 0.9519 0.7648
vt 0.9689 0.7491
vt 0.9689 0.7691
vt 0.9414 0.9416
vt 0.9526 0.9615
vt 0.9344 0.9615
vt 0.9448 0.3226
vt 0.9448 0.3459
vt 0.9267 0.3349
vt 0.9476 0.2412
vt 0.9476 0.2643
vt 0.9301 0.2512
vt 0.2861 0.9051
vt 0.3076 0.9035
vt 0.3076 0.9252
vt 0.8618 0.1168
vt 0.8818 0.1052
vt 0.8818 0.1342
vt 0.8816 0.7326
vt 0.8610 0.7227
vt 0.8816 0.7043
vt 0.5410 0.8468
vt 0.5638 0.8381
vt 0.5638 0.8649
vt 0.4060 0.8131
vt 0.3806 0.7989
vt 0.4060 0.7841
vt 0.5053 0.8130
vt 0.5053 0.8393
vt 0.4799 0.8250
vt 0.8965 0.8264
vt 0.8747 0.8264
vt 0.8828 0.8012
vt 0.4706 0.8005
vt 0.4706 0.8281
vt 0.4454 0.8155
vt 0.8236 0.3145
vt 0.7981 0.3005
vt 0.8236 0.2864
vt 0.1047 0.8382
vt 0.1301 0.8245
vt 0.1301 0.8501
vt 0.3480 0.8071
vt 0.3480 0.8351
vt 0.3241 0.8184
vt 0.2162 0.8555
vt 0.1912 0.8555
vt 0.2040 0.8300
vt 0.8385 0.2412
vt 0.8385 0.2691
vt 0.8147 0.2581
vt 0.9002 0.6582
vt 0.9002 0.6864
vt 0.8814 0.6773
vt 0.5643 0.8300
vt 0.5410 0.8144
vt 0.5643 0.8007
vt 0.0752 0.8285
vt 0.0871 0.8540
vt 0.0620 0.8540
vt 0.6999 0.7983
vt 0.6999 0.8277
vt 0.6756 0.8124
vt 0.8625 0.3049
vt 0.8830 0.2864
vt 0.8830 0.3145
vt 0.8955 0.9290
vt 0.8747 0.9290
vt 0.8937 0.9066
vt 0.8889 0.6017
vt 0.8889 0.6288
vt 0.8678 0.6209
vt 0.2777 0.9618
vt 0.2641 0.9493
vt 0.2777 0.9365
vt 0.9450 0.5137
vt 0.9252 0.5137
vt 0.9376 0.4922
vt 0.7566 0.9382
vt 0.7389 0.9298
vt 0.7566 0.9140
vt 0.8328 0.9351
vt 0.8119 0.9351
vt 0.8201 0.9136
vt 0.4672 0.8967
vt 0.4454 0.8845
vt 0.4672 0.8718
vt 0.8975 0.5032
vt 0.9171 0.4922
vt 0.9171 0.5172
vt 0.9466 0.8246
vt 0.9303 0.8158
vt 0.9466 0.8001
vt 0.9147 0.5651
vt 0.8943 0.5530
vt 0.9147 0.5399
vt 0.8119 0.8938
vt 0.8330 0.8806
vt 0.8330 0.9056
vt 0.0813 0.8945
vt 0.0813 0.9193
vt 0.0620 0.9089
vt 0.9177 0.1972
vt 0.9177 0.2212
vt 0.8973 0.2069
vt 0.5969 0.9234
vt 0.5755 0.9234
vt 0.5865 0.9015
vt 0.9188 0.8594
vt 0.8993 0.8456
vt 0.9188 0.8344
vt 0.5924 0.9544
vt 0.5755 0.9372
vt 0.5924 0.9314
vt 0.1247 0.9162
vt 0.1047 0.9028
vt 0.1247 0.8911
vt 0.2107 0.8979
vt 0.2107 0.9220
vt 0.1912 0.9129
vt 0.9102 0.0784
vt 0.8885 0.0658
vt 0.9102 0.0543
vt 0.9258 0.6176
vt 0.9434 0.6017
vt 0.9434 0.6257
vt 0.9691 0.6490
vt 0.9514 0.6477
vt 0.9691 0.6298
vt 0.1158 0.9242
vt 0.1239 0.9460
vt 0.1047 0.9460
vt 0.2370 0.8770
vt 0.2588 0.8597
vt 0.2588 0.8862
vt 0.7001 0.8616
vt 0.6756 0.8492
vt 0.7001 0.8357
vt 0.9187 0.3507
vt 0.9018 0.3340
vt 0.9187 0.3226
vt 0.4046 0.8800
vt 0.3806 0.8800
vt 0.3923 0.8555
vt 0.8523 0.0543
vt 0.8523 0.0821
vt 0.8289 0.0697
vt 0.8667 0.8998
vt 0.8463 0.8815
vt 0.8667 0.8737
vt 0.8614 0.7754
vt 0.8374 0.7642
vt 0.8614 0.7491
vt 0.5613 0.9311
vt 0.5410 0.9311
vt 0.5446 0.9084
vt 0.8528 0.0191
vt 0.8528 0.0463
vt 0.8289 0.0343
vt 0.9018 0.3786
vt 0.9211 0.3587
vt 0.9211 0.3832
vt 0.7897 0.8355
vt 0.7897 0.8616
vt 0.7654 0.8499
vt 0.6538 0.8624
vt 0.6538 0.8887
vt 0.6325 0.8710
vt 0.6033 0.8753
vt 0.6233 0.8658
vt 0.6233 0.8929
vt 0.8335 0.8448
vt 0.8335 0.8725
vt 0.8119 0.8563
vt 0.9346 0.4320
vt 0.9346 0.4603
vt 0.9192 0.4476
vt 0.7320 0.8462
vt 0.7320 0.8733
vt 0.7098 0.8630
vt 0.4454 0.8477
vt 0.4676 0.8361
vt 0.4676 0.8638
vt 0.8537 0.1334
vt 0.8308 0.1204
vt 0.8537 0.1052
vt 0.5990 0.8307
vt 0.5990 0.8577
vt 0.5755 0.8421
vt 0.5604 0.9004
vt 0.5410 0.8905
vt 0.5604 0.8730
vt 0.9767 0.9293
vt 0.9599 0.9293
vt 0.9724 0.9109
vt 0.1912 0.9629
vt 0.2076 0.9599
vt 0.2076 0.9780
vt 0.9087 0.4836
vt 0.8898 0.4836
vt 0.9009 0.4645
vt 0.6945 0.9544
vt 0.6756 0.9460
vt 0.6945 0.9341
vt 0.9671 0.5704
vt 0.9671 0.5907
vt 0.9502 0.5767
vt 0.2560 0.9464
vt 0.2370 0.9362
vt 0.2560 0.9245
vt 0.9450 0.1972
vt 0.9450 0.2193
vt 0.9258 0.2086
vt 0.1469 0.9376
vt 0.1658 0.9283
vt 0.1658 0.9496
vt 0.9535 0.8396
vt 0.9713 0.8344
vt 0.9713 0.8532
vt 0.9557 0.2519
vt 0.9701 0.2412
vt 0.9701 0.2636
vt 0.9741 0.9636
vt 0.9606 0.9500
vt 0.9741 0.9416
vt 0.9594 0.7043
vt 0.9594 0.7267
vt 0.9427 0.7159
vt 0.9292 0.3706
vt 0.9481 0.3587
vt 0.9481 0.3802
vt 0.9421 0.5623
vt 0.9227 0.5511
vt 0.9421 0.5399
vt 0.2861 0.9419
vt 0.3046 0.9332
vt 0.3046 0.9543
vt 0.5598 0.9590
vt 0.5410 0.9470
vt 0.5598 0.9391
vt 0.3806 0.9701
vt 0.3923 0.9512
vt 0.3986 0.9701
vt 0.4142 0.9775
vt 0.4279 0.9598
vt 0.4316 0.9775
vt 0.1098 0.9540
vt 0.1221 0.9725
vt 0.1047 0.9725
vt 0.3419 0.9616
vt 0.3241 0.9483
vt 0.3419 0.9412
vt 0.7344 0.8109
vt 0.7344 0.8382
vt 0.7098 0.8248
vt 0.8911 0.3108
vt 0.9032 0.2864
vt 0.9123 0.3108
vt 0.8630 0.1972
vt 0.8630 0.2249
vt 0.8408 0.2133
vt 0.8545 0.3145
vt 0.8317 0.2992
vt 0.8545 0.2864
vt 0.8527 0.4320
vt 0.8527 0.4594
vt 0.8291 0.4440
vt 0.9265 0.3925
vt 0.9265 0.4209
vt 0.9106 0.4061
vt 0.5023 0.8741
vt 0.4799 0.8573
vt 0.5023 0.8473
vt 0.4142 0.9227
vt 0.4207 0.8985
vt 0.4335 0.9227
vt 0.3723 0.9050
vt 0.3534 0.8868
vt 0.3723 0.8780
vt 0.6325 0.8425
vt 0.6561 0.8270
vt 0.6561 0.8544
vt 0.9178 0.6256
vt 0.8969 0.6256
vt 0.9035 0.6017
vt 0.8598 0.6277
vt 0.8353 0.6154
vt 0.8598 0.6017
vt 0.9214 0.8746
vt 0.9214 0.9029
vt 0.9051 0.8872
vt 0.8818 0.4599
vt 0.8608 0.4482
vt 0.8818 0.4320
vt 0.5103 0.9063
vt 0.5237 0.8820
vt 0.5320 0.9063
vt 0.3241 0.8534
vt 0.3467 0.8432
vt 0.3467 0.8699
vt 0.2370 0.8394
vt 0.2605 0.8240
vt 0.2605 0.8517
vt 0.5755 0.8766
vt 0.5953 0.8658
vt 0.5953 0.8935
vt 0.4363 0.8561
vt 0.4142 0.8415
vt 0.4363 0.8278
vt 0.8403 0.5052
vt 0.8624 0.4922
vt 0.8624 0.5204
vt 0.6504 0.5441
vt 0.6675 0.6478
vt 0.6325 0.6478
vt 0.5486 0.5778
vt 0.5486 0.6822
vt 0.5170 0.5921
vt 0.6957 0.0191
vt 0.6957 0.1155
vt 0.6615 0.0247
vt 0.6071 0.5754
vt 0.6071 0.6798
vt 0.5755 0.6653
vt 0.2861 0.6410
vt 0.3308 0.5787
vt 0.3308 0.6544
vt 0.4093 0.1679
vt 0.4093 0.2502
vt 0.3641 0.2384
vt 0.6565 0.2508
vt 0.6117 0.1884
vt 0.6565 0.1762
vt 0.4454 0.2372
vt 0.4899 0.1815
vt 0.4899 0.2530
vt 0.8563 0.5399
vt 0.8563 0.5688
vt 0.8342 0.5588
vt 0.7221 0.4239
vt 0.6782 0.4173
vt 0.7221 0.3797
vt 0.6674 0.9533
vt 0.6604 0.9311
vt 0.6674 0.9271
vt 0.5024 0.1928
vt 0.4979 0.1928
vt 0.4986 0.1808
vt 0.3480 0.7402
vt 0.3480 0.7990
vt 0.3285 0.7739
vt 0.2370 0.7510
vt 0.2665 0.7428
vt 0.2665 0.7807
vt 0.8447 0.6963
vt 0.8282 0.6692
vt 0.8447 0.6582
vt 0.6057 0.7855
vt 0.5755 0.7566
vt 0.6057 0.7395
vt 0.6375 0.2610
vt 0.6548 0.2667
vt 0.6548 0.3861
vt 0.6242 0.3379
vt 0.4666 0.7414
vt 0.4666 0.7924
vt 0.4454 0.7775
vt 0.2276 0.8635
vt 0.2276 0.9096
vt 0.2204 0.8793
vt 0.6702 0.5360
vt 0.6325 0.4611
vt 0.6702 0.4348
vt 0.8077 0.5936
vt 0.7899 0.5715
vt 0.8077 0.5441
vt 0.7935 0.9718
vt 0.8008 0.9461
vt 0.8008 0.9751
vt 0.2290 0.6593
vt 0.2290 0.7279
vt 0.1912 0.6762
vt 0.4288 0.6653
vt 0.3806 0.6568
vt 0.4288 0.6009
vt 0.8052 0.6475
vt 0.7899 0.6143
vt 0.8052 0.6017
vt 0.5611 0.6902
vt 0.5611 0.7561
vt 0.5410 0.6996
vt 0.2210 0.7865
vt 0.1912 0.7865
vt 0.2197 0.7359
vt 0.6922 0.3623
vt 0.6628 0.2818
vt 0.6922 0.2610
vt 0.5014 0.4092
vt 0.5014 0.5396
vt 0.4454 0.4825
vt 0.1469 0.8026
vt 0.1735 0.7971
vt 0.1735 0.8242
vt 0.9580 0.1052
vt 0.9580 0.1370
vt 0.9481 0.1301
vt 0.5469 0.2530
vt 0.5672 0.2140
vt 0.5843 0.2530
vt 0.6325 0.7662
vt 0.6629 0.7460
vt 0.6629 0.7818
vt 0.0718 0.2610
vt 0.1345 0.3806
vt 0.0191 0.3806
vt 0.6535 0.1682
vt 0.6117 0.0707
vt 0.6535 0.0191
vt 0.6129 0.6878
vt 0.6129 0.7315
vt 0.5755 0.7064
vt 0.3806 0.7537
vt 0.4157 0.7324
vt 0.4157 0.7761
vt 0.1913 0.6058
vt 0.2290 0.5214
vt 0.2290 0.6512
vt 0.7373 0.4320
vt 0.7373 0.5331
vt 0.7120 0.4401
vt 0.1047 0.4635
vt 0.1629 0.3887
vt 0.1629 0.5295
vt 0.7777 0.5241
vt 0.7656 0.4686
vt 0.7777 0.4320
vt 0.5056 0.1716
vt 0.4495 0.1150
vt 0.5056 0.0191
vt 0.5053 0.7626
vt 0.5053 0.8050
vt 0.4881 0.8003
vt 0.5329 0.7840
vt 0.5329 0.8251
vt 0.5160 0.7905
vt 0.7180 0.7586
vt 0.7279 0.8029
vt 0.7098 0.8029
vt 0.7360 0.7989
vt 0.7538 0.7586
vt 0.7538 0.8020
vt 0.9809 0.2864
vt 0.9809 0.3072
vt 0.9714 0.2962
vt 0.9186 0.1839
vt 0.9008 0.1573
vt 0.9186 0.1571
vt 0.8912 0.8344
vt 0.8912 0.8666
vt 0.8747 0.8420
vt 0.8296 0.8012
vt 0.8335 0.8367
vt 0.8154 0.8367
vt 0.8327 0.1972
vt 0.8327 0.2332
vt 0.8147 0.1992
vt 0.3334 0.6624
vt 0.3334 0.6773
vt 0.3268 0.6687
vt 0.7018 0.6483
vt 0.6756 0.6483
vt 0.6874 0.5441
vt 0.7258 0.3654
vt 0.7003 0.2644
vt 0.7258 0.2610
vt 0.7012 0.7527
vt 0.6756 0.6598
vt 0.7012 0.6563
vt 0.6782 0.4348
vt 0.7040 0.4320
vt 0.7040 0.5360
vt 0.4486 0.6568
vt 0.4801 0.7334
vt 0.4454 0.7334
vt 0.7324 0.2219
vt 0.6986 0.2141
vt 0.7324 0.1396
vt 0.6325 0.6684
vt 0.6648 0.6559
vt 0.6648 0.7380
vt 0.0964 0.6605
vt 0.0964 0.7298
vt 0.0620 0.7229
vt 0.3285 0.7302
vt 0.3687 0.6856
vt 0.3687 0.7322
vt 0.4202 0.7244
vt 0.3806 0.6861
vt 0.4202 0.6734
vt 0.2533 0.7887
vt 0.2641 0.8159
vt 0.2370 0.8159
vt 0.7905 0.7910
vt 0.7683 0.7725
vt 0.7905 0.7491
vt 0.7381 0.0505
vt 0.7591 0.0191
vt 0.7591 0.0971
vt 0.2861 0.0871
vt 0.3561 0.0191
vt 0.3561 0.2530
vt 0.7904 0.0291
vt 0.8045 0.0191
vt 0.8045 0.0781
vt 0.0945 0.7839
vt 0.0620 0.7410
vt 0.0945 0.7378
vt 0.7817 0.1891
vt 0.7685 0.1688
vt 0.7817 0.1052
vt 0.4794 0.7414
vt 0.4794 0.7743
vt 0.4746 0.7678
vt 0.8008 0.4320
vt 0.8008 0.5048
vt 0.7857 0.4325
vt 0.8603 0.8069
vt 0.8667 0.8012
vt 0.8667 0.8656
vt 0.6244 0.8506
vt 0.6125 0.8363
vt 0.6244 0.8140
vt 0.3560 0.7841
vt 0.3720 0.7402
vt 0.3720 0.8002
vt 0.8202 0.7240
vt 0.8122 0.7208
vt 0.8202 0.6582
vt 0.2861 0.9631
vt 0.3001 0.9624
vt 0.3001 0.9809
vt 0.1727 0.7891
vt 0.1469 0.7844
vt 0.1727 0.7592
vt 0.5329 0.7760
vt 0.5170 0.7541
vt 0.5329 0.6902
vt 0.3065 0.7547
vt 0.2861 0.6848
vt 0.3065 0.6624
vt 0.0540 0.6488
vt 0.0191 0.6023
vt 0.0540 0.5223
vt 0.7420 0.5679
vt 0.7591 0.5441
vt 0.7591 0.6314
vt 0.7819 0.6241
vt 0.7671 0.5891
vt 0.7819 0.5441
vt 0.6628 0.3917
vt 0.6700 0.3703
vt 0.6700 0.4177
vt 0.2758 0.4038
vt 0.1913 0.3097
vt 0.2758 0.2735
vt 0.9547 0.7996
vt 0.9651 0.7953
vt 0.9651 0.8246
vt 0.9772 0.0458
vt 0.9699 0.0241
vt 0.9772 0.0191
vt 0.2777 0.8900
vt 0.2777 0.9285
vt 0.2685 0.9205
vt 0.8228 0.1052
vt 0.8228 0.1540
vt 0.8096 0.1471
vt 0.3418 0.5992
vt 0.3687 0.5622
vt 0.3687 0.6776
vt 0.7985 0.7887
vt 0.8074 0.7491
vt 0.8074 0.8143
vt 0.8007 0.3945
vt 0.7844 0.3397
vt 0.8007 0.3226
vt 0.5089 0.7545
vt 0.4881 0.6982
vt 0.5089 0.6568
vt 0.7818 0.7411
vt 0.7683 0.7028
vt 0.7818 0.6582
vt 0.5089 0.6425
vt 0.4922 0.5795
vt 0.5089 0.5477
vt 0.2370 0.5640
vt 0.2720 0.5214
vt 0.2720 0.6522
vt 0.5170 0.5185
vt 0.5674 0.4348
vt 0.5674 0.5698
vt 0.6244 0.8060
vt 0.6138 0.7668
vt 0.6244 0.7395
vt 0.1389 0.6531
vt 0.1047 0.5979
vt 0.1389 0.5375
vt 0.1774 0.7140
vt 0.1808 0.6712
vt 0.1808 0.7230
vt 0.2861 0.4654
vt 0.3338 0.4216
vt 0.3338 0.5707
vt 0.7899 0.6984
vt 0.8041 0.6582
vt 0.8041 0.7213
vt 0.7340 0.5441
vt 0.7340 0.6502
vt 0.7098 0.5918
vt 0.3145 0.6802
vt 0.3188 0.6624
vt 0.3188 0.7318
vt 0.9426 0.4665
vt 0.9508 0.4320
vt 0.9508 0.4709
vt 0.1386 0.7806
vt 0.1047 0.7547
vt 0.1386 0.7356
vt 0.7625 0.2841
vt 0.7901 0.2610
vt 0.7901 0.3145
vt 0.2753 0.8820
vt 0.2685 0.8515
vt 0.2753 0.8240
vt 0.7098 0.6773
vt 0.7365 0.6582
vt 0.7365 0.7506
vt 0.7445 0.6928
vt 0.7602 0.6582
vt 0.7602 0.7495
vt 0.6243 0.7154
vt 0.6209 0.6941
vt 0.6243 0.6878
vt 0.6162 0.4048
vt 0.5700 0.3823
vt 0.6162 0.2610
vt 0.7823 0.0970
vt 0.7671 0.0410
vt 0.7823 0.0191
vt 0.4273 0.5929
vt 0.3806 0.5144
vt 0.4273 0.4491
vt 0.4173 0.1908
vt 0.4327 0.1679
vt 0.4327 0.2483
vt 0.7576 0.5357
vt 0.7454 0.4649
vt 0.7576 0.4320
vt 0.7545 0.3648
vt 0.7338 0.3785
vt 0.7338 0.2768
vt 0.7545 0.2610
vt 0.4363 0.8197
vt 0.4239 0.7917
vt 0.4363 0.7679
vt 0.4355 0.4532
vt 0.4373 0.4491
vt 0.4373 0.4759
vt 0.1825 0.4985
vt 0.1725 0.5102
vt 0.1709 0.3964
vt 0.1825 0.3887
vt 0.4841 0.6488
vt 0.4454 0.6143
vt 0.4841 0.5477
vt 0.7897 0.1367
vt 0.8016 0.1052
vt 0.8016 0.1840
vt 0.1425 0.3143
vt 0.1779 0.2610
vt 0.1779 0.3743
vt 0.4282 0.6831
vt 0.4363 0.6734
vt 0.4363 0.7598
vt 0.4414 0.1599
vt 0.3641 0.1360
vt 0.4414 0.0191
vt 0.4454 0.3548
vt 0.5090 0.2610
vt 0.5090 0.4012
vt 0.6236 0.6702
vt 0.6151 0.5841
vt 0.6236 0.5754
vt 0.0967 0.3887
vt 0.0967 0.5143
vt 0.0191 0.4382
vt 0.0451 0.9454
vt 0.0523 0.9344
vt 0.0523 0.9654
vt 0.7404 0.1823
vt 0.7604 0.1052
vt 0.7604 0.2219
vt 0.7038 0.0893
vt 0.7301 0.0191
vt 0.7301 0.1206
vt 0.1913 0.4844
vt 0.2722 0.4119
vt 0.2722 0.5134
vt 0.8869 0.3404
vt 0.8938 0.3226
vt 0.8938 0.3793
vt 0.1469 0.6507
vt 0.1752 0.5375
vt 0.1752 0.6631
vt 0.8087 0.3880
vt 0.8158 0.3226
vt 0.8158 0.4085
vt 0.7625 0.3651
vt 0.7764 0.3226
vt 0.7764 0.4098
vt 0.8209 0.0831
vt 0.8125 0.0396
vt 0.8209 0.0191
vt 0.1811 0.7495
vt 0.1832 0.7359
vt 0.1832 0.7581
vt 0.5657 0.0899
vt 0.6036 0.0191
vt 0.6036 0.2014
vt 0.3726 0.2610
vt 0.3726 0.4135
vt 0.2861 0.4024
vt 0.6645 0.1923
vt 0.6906 0.1396
vt 0.6906 0.2508
vt 0.3418 0.5258
vt 0.3725 0.4216
vt 0.3725 0.5541
vt 0.3706 0.8492
vt 0.3560 0.8492
vt 0.3594 0.8083
vt 0.7562 0.8521
vt 0.7424 0.8163
vt 0.7562 0.8109
vt 0.8273 0.6470
vt 0.8133 0.6423
vt 0.8273 0.6017
vt 0.8294 0.7932
vt 0.8154 0.7541
vt 0.8294 0.7491
vt 0.0965 0.9767
vt 0.0870 0.9658
vt 0.0965 0.9559
vt 0.1827 0.9603
vt 0.1738 0.9543
vt 0.1827 0.9283
vt 0.2290 0.9566
vt 0.2191 0.9292
vt 0.2290 0.9245
vt 0.8036 0.9380
vt 0.7935 0.9344
vt 0.8036 0.9023
vt 0.6026 0.2500
vt 0.5923 0.2178
vt 0.6026 0.2140
vt 0.7737 0.6470
vt 0.7671 0.6384
vt 0.7737 0.6321
vt 0.0191 0.7044
vt 0.0440 0.6568
vt 0.0440 0.7545
vt 0.8211 0.4842
vt 0.8088 0.4747
vt 0.8211 0.4320
vt 0.0930 0.5223
vt 0.0930 0.6524
vt 0.0620 0.5555
vt 0.5790 0.5189
vt 0.5755 0.4398
vt 0.6244 0.4348
vt 0.6244 0.5673
vt 0.5362 0.2009
vt 0.5389 0.2530
vt 0.4979 0.2530
vt 0.2699 0.7348
vt 0.2370 0.7158
vt 0.2699 0.6602
vt 0.8157 0.5771
vt 0.8262 0.5399
vt 0.8262 0.5936
vt 0.8522 0.8508
vt 0.8415 0.8323
vt 0.8522 0.8012
vt 0.7513 0.8601
vt 0.7513 0.9055
vt 0.7424 0.8837
vt 0.1694 0.6712
vt 0.1694 0.7512
vt 0.1469 0.6842
vt 0.7685 0.2070
vt 0.7905 0.1972
vt 0.7905 0.2510
vt 0.5620 0.4267
vt 0.5170 0.3205
vt 0.5620 0.2610
vt 0.1913 0.1051
vt 0.2780 0.0191
vt 0.2780 0.2654
vt 0.8067 0.1972
vt 0.8067 0.2776
vt 0.7986 0.2166
vt 0.4373 0.2610
vt 0.4373 0.4410
vt 0.3806 0.3239
vt 0.1047 0.7007
vt 0.1388 0.6611
vt 0.1388 0.7275
vt 0.5136 0.0859
vt 0.5576 0.0191
vt 0.5576 0.1908
vt 0.1832 0.0191
vt 0.1832 0.2530
vt 0.0191 0.0693
vt 0.5566 0.5911
vt 0.5656 0.5778
vt 0.5656 0.6658
vn -0.0633 -0.8498 0.5232
vn -0.1312 -0.2822 0.9503
vn 0.5664 -0.8017 0.1909
vn 0.8877 -0.2042 0.4127
vn 0.4565 0.1168 0.8820
vn -0.6867 0.1021 0.7198
vn -0.5767 -0.8164 0.0287
vn 0.4422 -0.7385 -0.5090
vn 0.9620 0.2282 -0.1502
vn 0.2643 0.7477 0.6092
vn -0.9620 -0.2282 0.1502
vn -0.2643 -0.7477 -0.6092
vn 0.6867 -0.1021 -0.7198
vn 0.5767 0.8164 -0.0287
vn -0.4422 0.7385 0.5090
vn -0.8877 0.2042 -0.4127
vn -0.4565 -0.1168 -0.8820
vn 0.1312 0.2822 -0.9503
vn 0.0633 0.8498 -0.5232
vn -0.5664 0.8017 -0.1909
vn -0.0148 0.7947 0.6069
vn -0.5817 0.7947 0.1735
vn 0.5726 0.7947 0.2016
vn 0.3687 0.7947 -0.4823
vn -0.3448 0.7947 -0.4997
vn -0.9413 0.1876 0.2807
vn -0.0239 0.1876 0.9820
vn 0.9265 0.1876 0.3262
vn 0.5965 0.1876 -0.7804
vn -0.5578 0.1876 -0.8085
vn -0.5965 -0.1876 0.7804
vn 0.5578 -0.1876 0.8085
vn 0.9413 -0.1876 -0.2807
vn 0.0239 -0.1876 -0.9820
vn -0.9265 -0.1876 -0.3262
vn -0.3687 -0.7947 0.4823
vn 0.3448 -0.7947 0.4997
vn 0.5817 -0.7947 -0.1735
vn 0.0148 -0.7947 -0.6069
vn -0.5726 -0.7947 -0.2016
vn -0.3627 0.8026 -0.4737
vn -0.8090 0.2489 -0.5325
vn 0.2670 0.6082 -0.7475
vn 0.2099 -0.0656 -0.9755
vn -0.4552 -0.2877 -0.8426
vn -0.9912 0.0416 0.1257
vn -0.2690 0.9375 0.2208
vn 0.7499 0.6231 -0.2222
vn 0.6574 -0.4672 -0.5912
vn -0.4187 -0.8266 -0.3762
vn -0.6574 0.4672 0.5912
vn 0.4187 0.8266 0.3762
vn 0.9912 -0.0416 -0.1257
vn 0.2690 -0.9375 -0.2208
vn -0.7499 -0.6231 0.2222
vn -0.2099 0.0656 0.9755
vn 0.4552 0.2877 0.8426
vn 0.8090 -0.2489 0.5325
vn 0.3627 -0.8026 0.4737
vn -0.2670 -0.6082 0.7475
vn 0.7824 -0.5849 0.2137
vn 0.1680 -0.9265 0.3368
vn 0.7899 0.0064 0.6132
vn 0.1801 0.0303 0.9832
vn -0.2043 -0.5463 0.8123
vn -0.2025 -0.9405 -0.2730
vn 0.7917 -0.3878 -0.4721
vn 0.8037 0.5689 0.1743
vn -0.1830 0.6076 0.7729
vn -0.8048 -0.3253 0.4964
vn 0.1830 -0.6076 -0.7729
vn 0.8048 0.3253 -0.4964
vn 0.2025 0.9405 0.2730
vn -0.7917 0.3878 0.4721
vn -0.8037 -0.5689 -0.1743
vn -0.1801 -0.0303 -0.9832
vn 0.2043 0.5463 -0.8123
vn -0.1680 0.9265 -0.3368
vn -0.7824 0.5849 -0.2137
vn -0.7899 -0.0064 -0.6132
vn 0.1151 -0.2968 0.9480
vn -0.5032 -0.5324 0.6807
vn 0.1181 0.4154 0.9020
vn -0.4983 0.6199 0.6062
vn -0.8823 0.0341 0.4694
vn -0.3580 -0.9279 0.1046
vn 0.6425 -0.5466 0.5371
vn 0.6473 0.6057 0.4627
vn -0.3501 0.9366 -0.0159
vn -0.9714 -0.0112 -0.2372
vn 0.3501 -0.9366 0.0159
vn 0.9714 0.0112 0.2372
vn 0.3580 0.9279 -0.1046
vn -0.6425 0.5466 -0.5371
vn -0.6473 -0.6057 -0.4627
vn 0.4983 -0.6199 -0.6062
vn 0.8823 -0.0341 -0.4694
vn 0.5032 0.5324 -0.6807
vn -0.1151 0.2968 -0.9480
vn -0.1181 -0.4154 -0.9020
vn -0.6183 -0.6055 0.5011
vn -0.6324 -0.7489 -0.1978
vn -0.8038 0.0779 0.5897
vn -0.9326 0.3568 -0.0544
vn -0.8267 -0.1542 -0.5412
vn 0.0308 -0.9150 -0.4023
vn 0.0537 -0.6829 0.7286
vn -0.2465 0.4229 0.8720
vn -0.4548 0.8741 -0.1703
vn -0.2834 0.0473 -0.9578
vn 0.4548 -0.8741 0.1703
vn 0.2834 -0.0473 0.9578
vn -0.0308 0.9150 0.4023
vn -0.0537 0.6829 -0.7286
vn 0.2465 -0.4229 -0.8720
vn 0.9326 -0.3568 0.0544
vn 0.8267 0.1542 0.5412
vn 0.6324 0.7489 0.1978
vn 0.6183 0.6055 -0.5011
vn 0.8038 -0.0779 -0.5897
vn 0.5679 -0.8074 0.1600
vn 0.8765 -0.2220 0.4271
vn 0.4646 -0.7030 -0.5384
vn 0.7094 -0.0531 -0.7028
vn 0.9639 0.2442 -0.1061
vn 0.4281 0.0668 0.9013
vn -0.0712 -0.8803 0.4690
vn -0.2384 -0.7115 -0.6610
vn 0.1576 0.3401 -0.9271
vn 0.5695 0.8211 0.0385
vn -0.1576 -0.3401 0.9271
vn -0.5695 -0.8211 -0.0385
vn -0.4281 -0.0668 -0.9013
vn 0.0712 0.8803 -0.4690
vn 0.2384 0.7115 0.6610
vn -0.7094 0.0531 0.7028
vn -0.9639 -0.2442 0.1061
vn -0.8765 0.2220 -0.4271
vn -0.5679 0.8074 -0.1600
vn -0.4646 0.7030 0.5384
vn 0.3790 -0.6805 -0.6271
vn 0.8500 -0.1591 -0.5023
vn -0.2109 -0.3846 -0.8987
vn -0.1045 0.3197 -0.9417
vn 0.5511 0.4591 -0.6967
vn 0.9704 -0.1343 0.2007
vn 0.2084 -0.9780 -0.0012
vn -0.7460 -0.4993 -0.4407
vn -0.5739 0.6404 -0.5104
vn 0.4869 0.8660 -0.1140
vn 0.5739 -0.6404 0.5104
vn -0.4869 -0.8660 0.1140
vn -0.9704 0.1343 -0.2007
vn -0.2084 0.9780 0.0012
vn 0.7460 0.4993 0.4407
vn 0.1045 -0.3197 0.9417
vn -0.5511 -0.4591 0.6967
vn -0.8500 0.1591 0.5023
vn -0.3790 0.6805 0.6271
vn 0.2109 0.3846 0.8987
vn -0.2165 -0.9736 -0.0728
vn 0.2478 -0.7774 -0.5781
vn -0.8043 -0.5757 -0.1471
vn -0.7033 -0.1337 -0.6982
vn -0.0531 -0.2584 -0.9646
vn 0.8236 -0.5065 -0.2552
vn 0.0724 -0.8238 0.5623
vn -0.8787 -0.1801 0.4422
vn -0.7152 0.5351 -0.4496
vn 0.3369 0.3334 -0.8806
vn 0.7152 -0.5351 0.4496
vn -0.3369 -0.3334 0.8806
vn -0.8236 0.5065 0.2552
vn -0.0724 0.8238 -0.5623
vn 0.8787 0.1801 -0.4422
vn 0.7033 0.1337 0.6982
vn 0.0531 0.2584 0.9646
vn -0.2478 0.7774 0.5781
vn 0.2165 0.9736 0.0728
vn 0.8043 0.5757 0.1471
vn -0.9049 -0.1352 -0.4037
vn 0.4332 -0.1189 -0.8934
vn 0.8905 0.2267 0.3945
vn -0.4502 0.2058 0.8689
vn -0.4042 -0.1393 0.9040
vn 0.9047 -0.1342 0.4045
vn 0.3897 0.2973 -0.8716
vn -0.8643 0.3221 -0.3864
vn -0.7498 0.6617 -0.0002
vn 0.1575 0.6617 -0.7330
vn -0.3815 0.7946 -0.4723
vn 0.0502 0.1876 0.9810
vn 0.7184 0.3304 -0.6121
vn 0.6345 -0.1780 0.7522
vn 0.5862 0.7947 0.1578
vn -0.5583 0.6617 0.5005
vn 0.7438 -0.5457 0.3860
vn -0.9525 0.1285 -0.2763
vn -0.9485 -0.1876 -0.2554
vn -0.5670 0.7947 0.2169
vn -0.9187 -0.3819 0.1008
vn -0.6485 0.6617 -0.3764
vn -0.6350 -0.1677 0.7541
vn 0.3313 0.7947 -0.5087
vn 0.7458 0.6617 -0.0767
vn 0.6067 0.6617 -0.4405
vn -0.2082 0.9435 -0.2577
vn -0.3094 0.9435 0.1183
vn 0.1783 0.9839 -0.0124
vn 0.0169 0.9435 0.3309
vn 0.3139 0.3304 0.8901
vn -0.2319 0.6617 0.7130
vn 0.0310 0.7947 0.6063
vn 0.9599 0.2703 -0.0748
vn 0.3849 0.6843 0.6193
vn 0.6303 0.1201 0.7670
vn 0.8093 0.3087 0.4997
vn -0.9016 0.3879 0.1913
vn 0.2894 -0.3288 0.8990
vn -0.3686 0.1121 0.9228
vn -0.4319 0.5086 -0.7448
vn 0.4136 -0.0439 -0.9094
vn 0.0049 -0.8564 0.5163
vn -0.0405 0.8863 -0.4613
vn -0.8771 -0.2541 -0.4076
vn 0.8391 0.2752 0.4693
vn -0.4857 0.3844 0.7850
vn 0.3886 -0.7211 -0.5736
vn -0.3590 0.8287 0.4294
vn 0.9266 0.2359 0.2928
vn -0.8663 -0.1631 -0.4722
vn 0.1865 0.5554 -0.8104
vn -0.9046 -0.1351 -0.4044
vn 0.4054 -0.1154 -0.9068
vn 0.8893 0.2262 0.3976
vn -0.3999 0.1996 0.8945
vn -0.3669 -0.1266 0.9216
vn 0.9022 -0.1323 0.4105
vn 0.3147 0.2722 -0.9093
vn -0.8606 0.3185 -0.3973
vn 0.8891 -0.2505 -0.3831
vn 0.9633 0.1201 0.2400
vn 0.7395 -0.5544 0.3819
vn 0.0000 -1.0000 0.0000
vn -0.9569 0.1343 -0.2576
vn -0.9439 -0.2021 -0.2612
vn -0.5670 0.7946 0.2168
vn -0.6485 0.6617 -0.3763
vn 0.3313 0.7946 -0.5087
vn -0.3095 0.9435 0.1183
vn 0.1782 0.9839 -0.0124
vn 0.0169 0.9435 0.3308
vn 0.3140 0.3303 0.8901
vn 0.9599 0.2702 -0.0749
vn 0.9975 -0.0582 0.0411
vn 0.9599 0.2703 -0.0749
vn 0.6234 0.1256 0.7718
vn 0.8042 0.3304 0.4941
vn -0.9016 0.3880 0.1913
vn -0.9016 0.3879 0.1914
vn -0.5681 -0.6359 0.5223
vn -0.5650 -0.6422 0.5181
vn 0.2894 -0.3288 0.8989
vn 0.2894 -0.3289 0.8989
vn 0.2442 -0.6334 0.7343
vn -0.4319 0.5087 -0.7448
vn -0.4319 0.5087 -0.7447
vn 0.3648 -0.0619 -0.9290
vn 0.4136 -0.0438 -0.9094
vn 0.4134 -0.0443 -0.9095
vn 0.4154 -0.0604 -0.9076
vn -0.6785 -0.3663 -0.6367
vn -0.0187 -0.8585 0.5124
vn -0.0159 0.8888 -0.4580
vn -0.8819 -0.2285 -0.4124
vn 0.8427 0.2580 0.4726
vn 0.4126 -0.7097 -0.5710
vn -0.3827 0.8183 0.4288
vn 0.9140 0.2743 0.2991
vn -0.8688 -0.1540 -0.4706
vn -0.4006 -0.3051 -0.8640
vn -0.6782 -0.3688 -0.6357
vn -0.0912 -0.0493 -0.9946
vn 0.3963 -0.0587 -0.9162
vn -0.9456 -0.3186 0.0654
vn -0.4826 -0.6683 0.5661
vn -0.7198 -0.3777 -0.5825
vn 0.4229 -0.0417 -0.9052
vn 0.7310 -0.6395 -0.2382
vn -0.6758 -0.3705 -0.6372
vn -0.3982 -0.0305 0.9168
usemtl None
s off
f 1/1/1 2/2/1 3/3/1
f 2/4/2 1/5/2 6/6/2
f 1/7/3 3/8/3 4/9/3
f 1/10/4 4/11/4 5/12/4
f 1/13/5 5/14/5 6/15/5
f 2/16/6 6/17/6 11/18/6
f 3/19/7 2/20/7 7/21/7
f 4/22/8 3/23/8 8/24/8
f 5/25/9 4/26/9 9/27/9
f 6/28/10 5/29/10 10/30/10
f 2/31/11 11/32/11 7/33/11
f 3/34/12 7/35/12 8/36/12
f 4/37/13 8/38/13 9/39/13
f 5/40/14 9/41/14 10/42/14
f 6/43/15 10/44/15 11/45/15
f 7/46/16 11/47/16 12/48/16
f 8/49/17 7/50/17 12/51/17
f 9/52/18 8/53/18 12/54/18
f 10/55/19 9/56/19 12/57/19
f 11/58/20 10/59/20 12/60/20
f 13/61/21 14/62/21 15/63/21
f 14/64/22 13/65/22 18/66/22
f 13/67/23 15/68/23 16/69/23
f 13/70/24 16/71/24 17/72/24
f 13/73/25 17/74/25 18/75/25
f 14/76/26 18/77/26 23/78/26
f 15/79/27 14/80/27 19/81/27
f 16/82/28 15/83/28 20/84/28
f 17/85/29 16/86/29 21/87/29
f 18/88/30 17/89/30 22/90/30
f 14/91/31 23/92/31 19/93/31
f 15/94/32 19/95/32 20/96/32
f 16/97/33 20/98/33 21/99/33
f 17/100/34 21/101/34 22/102/34
f 18/103/35 22/104/35 23/105/35
f 19/106/36 23/107/36 24/108/36
f 20/109/37 19/110/37 24/111/37
f 21/112/38 20/113/38 24/114/38
f 22/115/39 21/116/39 24/117/39
f 23/118/40 22/119/40 24/120/40
f 25/121/21 26/122/21 27/123/21
f 26/124/22 25/125/22 30/126/22
f 25/127/23 27/128/23 28/129/23
f 25/130/24 28/131/24 29/132/24
f 25/133/25 29/134/25 30/135/25
f 26/136/26 30/137/26 35/138/26
f 27/139/27 26/140/27 31/141/27
f 28/142/28 27/143/28 32/144/28
f 29/145/29 28/146/29 33/147/29
f 30/148/30 29/149/30 34/150/30
f 26/151/31 35/152/31 31/153/31
f 27/154/32 31/155/32 32/156/32
f 28/157/33 32/158/33 33/159/33
f 29/160/34 33/161/34 34/162/34
f 30/163/35 34/164/35 35/165/35
f 31/166/36 35/167/36 36/168/36
f 32/169/37 31/170/37 36/171/37
f 33/172/38 32/173/38 36/174/38
f 34/175/39 33/176/39 36/177/39
f 35/178/40 34/179/40 36/180/40
f 37/181/21 38/182/21 39/183/21
f 38/184/22 37/185/22 42/186/22
f 37/187/23 39/188/23 40/189/23
f 37/190/24 40/191/24 41/192/24
f 37/193/25 41/194/25 42/195/25
f 38/196/26 42/197/26 47/198/26
f 39/199/27 38/200/27 43/201/27
f 40/202/28 39/203/28 44/204/28
f 41/205/29 40/206/29 45/207/29
f 42/208/30 41/209/30 46/210/30
f 38/211/31 47/212/31 43/213/31
f 39/214/32 43/215/32 44/216/32
f 40/217/33 44/218/33 45/219/33
f 41/220/34 45/221/34 46/222/34
f 42/223/35 46/224/35 47/225/35
f 43/226/36 47/227/36 48/228/36
f 44/229/37 43/230/37 48/231/37
f 45/232/38 44/233/38 48/234/38
f 46/235/39 45/236/39 48/237/39
f 47/238/40 46/239/40 48/240/40
f 49/241/41 50/242/41 51/243/41
f 50/244/42 49/245/42 54/246/42
f 49/247/43 51/248/43 52/249/43
f 49/250/44 52/251/44 53/252/44
f 49/253/45 53/254/45 54/255/45
f 50/256/46 54/257/46 59/258/46
f 51/259/47 50/260/47 55/261/47
f 52/262/48 51/263/48 56/264/48
f 53/265/49 52/266/49 57/267/49
f 54/268/50 53/269/50 58/270/50
f 50/271/51 59/272/51 55/273/51
f 51/274/52 55/275/52 56/276/52
f 52/277/53 56/278/53 57/279/53
f 53/280/54 57/281/54 58/282/54
f 54/283/55 58/284/55 59/285/55
f 55/286/56 59/287/56 60/288/56
f 56/289/57 55/290/57 60/291/57
f 57/292/58 56/293/58 60/294/58
f 58/295/59 57/296/59 60/297/59
f 59/298/60 58/299/60 60/300/60
f 61/301/61 62/302/61 63/303/61
f 62/304/62 61/305/62 66/306/62
f 61/307/63 63/308/63 64/309/63
f 61/310/64 64/311/64 65/312/64
f 61/313/65 65/314/65 66/315/65
f 62/316/66 66/317/66 71/318/66
f 63/319/67 62/320/67 67/321/67
f 64/322/68 63/323/68 68/324/68
f 65/325/69 64/326/69 69/327/69
f 66/328/70 65/329/70 70/330/70
f 62/331/71 71/332/71 67/333/71
f 63/334/72 67/335/72 68/336/72
f 64/337/73 68/338/73 69/339/73
f 65/340/74 69/341/74 70/342/74
f 66/343/75 70/344/75 71/345/75
f 67/346/76 71/347/76 72/348/76
f 68/349/77 67/350/77 72/351/77
f 69/352/78 68/353/78 72/354/78
f 70/355/79 69/356/79 72/357/79
f 71/358/80 70/359/80 72/360/80
f 73/361/81 74/362/81 75/363/81
f 74/364/82 73/365/82 78/366/82
f 73/367/83 75/368/83 76/369/83
f 73/370/84 76/371/84 77/372/84
f 73/373/85 77/374/85 78/375/85
f 74/376/86 78/377/86 83/378/86
f 75/379/87 74/380/87 79/381/87
f 76/382/88 75/383/88 80/384/88
f 77/385/89 76/386/89 81/387/89
f 78/388/90 77/389/90 82/390/90
f 74/391/91 83/392/91 79/393/91
f 75/394/92 79/395/92 80/396/92
f 76/397/93 80/398/93 81/399/93
f 77/400/94 81/401/94 82/402/94
f 78/403/95 82/404/95 83/405/95
f 79/406/96 83/407/96 84/408/96
f 80/409/97 79/410/97 84/411/97
f 81/412/98 80/413/98 84/414/98
f 82/415/99 81/416/99 84/417/99
f 83/418/100 82/419/100 84/420/100
f 85/421/101 86/422/101 87/423/101
f 86/424/102 85/425/102 90/426/102
f 85/427/103 87/428/103 88/429/103
f 85/430/104 88/431/104 89/432/104
f 85/433/105 89/434/105 90/435/105
f 86/436/106 90/437/106 95/438/106
f 87/439/107 86/440/107 91/441/107
f 88/442/108 87/443/108 92/444/108
f 89/445/109 88/446/109 93/447/109
f 90/448/110 89/449/110 94/450/110
f 86/451/111 95/452/111 91/453/111
f 87/454/112 91/455/112 92/456/112
f 88/457/113 92/458/113 93/459/113
f 89/460/114 93/461/114 94/462/114
f 90/463/115 94/464/115 95/465/115
f 91/466/116 95/467/116 96/468/116
f 92/469/117 91/470/117 96/471/117
f 93/472/118 92/473/118 96/474/118
f 94/475/119 93/476/119 96/477/119
f 95/478/120 94/479/120 96/480/120
f 97/481/101 98/482/101 99/483/101
f 98/484/102 97/485/102 102/486/102
f 97/487/103 99/488/103 100/489/103
f 97/490/104 100/491/104 101/492/104
f 97/493/105 101/494/105 102/495/105
f 98/496/106 102/497/106 107/498/106
f 99/499/107 98/500/107 103/501/107
f 100/502/108 99/503/108 104/504/108
f 101/505/109 100/506/109 105/507/109
f 102/508/110 101/509/110 106/510/110
f 98/511/111 107/512/111 103/513/111
f 99/514/112 103/515/112 104/516/112
f 100/517/113 104/518/113 105/519/113
f 101/520/114 105/521/114 106/522/114
f 102/523/115 106/524/115 107/525/115
f 103/526/116 107/527/116 108/528/116
f 104/529/117 103/530/117 108/531/117
f 105/532/118 104/533/118 108/534/118
f 106/535/119 105/536/119 108/537/119
f 107/538/120 106/539/120 108/540/120
f 109/541/121 110/542/121 111/543/121
f 110/544/122 109/545/122 114/546/122
f 109/547/123 111/548/123 112/549/123
f 109/550/124 112/551/124 113/552/124
f 109/553/125 113/554/125 114/555/125
f 110/556/126 114/557/126 119/558/126
f 111/559/127 110/560/127 115/561/127
f 112/562/128 111/563/128 116/564/128
f 113/565/129 112/566/129 117/567/129
f 114/568/130 113/569/130 118/570/130
f 110/571/131 119/572/131 115/573/131
f 111/574/132 115/575/132 116/576/132
f 112/577/133 116/578/133 117/579/133
f 113/580/134 117/581/134 118/582/134
f 114/583/135 118/584/135 119/585/135
f 115/586/136 119/587/136 120/588/136
f 116/589/137 115/590/137 120/591/137
f 117/592/138 116/593/138 120/594/138
f 118/595/139 117/596/139 120/597/139
f 119/598/140 118/599/140 120/600/140
f 121/601/141 122/602/141 123/603/141
f 122/604/142 121/605/142 126/606/142
f 121/607/143 123/608/143 124/609/143
f 121/610/144 124/611/144 125/612/144
f 121/613/145 125/614/145 126/615/145
f 122/616/146 126/617/146 131/618/146
f 123/619/147 122/620/147 127/621/147
f 124/622/148 123/623/148 128/624/148
f 125/625/149 124/626/149 129/627/149
f 126/628/150 125/629/150 130/630/150
f 122/631/151 131/632/151 127/633/151
f 123/634/152 127/635/152 128/636/152
f 124/637/153 128/638/153 129/639/153
f 125/640/154 129/641/154 130/642/154
f 126/643/155 130/644/155 131/645/155
f 127/646/156 131/647/156 132/648/156
f 128/649/157 127/650/157 132/651/157
f 129/652/158 128/653/158 132/654/158
f 130/655/159 129/656/159 132/657/159
f 131/658/160 130/659/160 132/660/160
f 133/661/161 134/662/161 135/663/161
f 134/664/162 133/665/162 138/666/162
f 133/667/163 135/668/163 136/669/163
f 133/670/164 136/671/164 137/672/164
f 133/673/165 137/674/165 138/675/165
f 134/676/166 138/677/166 143/678/166
f 135/679/167 134/680/167 139/681/167
f 136/682/168 135/683/168 140/684/168
f 137/685/169 136/686/169 141/687/169
f 138/688/170 137/689/170 142/690/170
f 134/691/171 143/692/171 139/693/171
f 135/694/172 139/695/172 140/696/172
f 136/697/173 140/698/173 141/699/173
f 137/700/174 141/701/174 142/702/174
f 138/703/175 142/704/175 143/705/175
f 139/706/176 143/707/176 144/708/176
f 140/709/177 139/710/177 144/711/177
f 141/712/178 140/713/178 144/714/178
f 142/715/179 141/716/179 144/717/179
f 143/718/180 142/719/180 144/720/180
f 146/721/181 154/722/181 153/723/181
f 154/724/182 152/725/182 155/726/182
f 155/727/183 150/728/183 156/729/183
f 150/730/184 153/731/184 156/732/184
f 149/733/185 153/734/185 145/735/185
f 155/736/186 149/737/186 151/738/186
f 154/739/187 151/740/187 147/741/187
f 145/742/188 154/743/188 147/744/188
f 158/745/189 159/746/189 160/747/189
f 161/748/190 162/749/190 163/750/190
f 164/751/191 165/752/191 160/753/191
f 166/754/192 167/755/192 168/756/192
f 169/757/193 170/758/193 171/759/193
f 174/760/194 175/761/194 176/762/194
f 180/763/195 182/764/195 183/765/195
f 184/766/196 186/767/196 187/768/196
f 175/769/197 234/770/197 172/771/197 157/772/197
f 188/773/198 190/774/198 191/775/198
f 188/776/199 192/777/199 189/778/199
f 160/779/200 184/780/200 187/781/200
f 193/782/201 192/783/201 239/784/201
f 165/785/202 158/786/202 160/787/202
f 195/788/203 196/789/203 197/790/203
f 163/791/204 162/792/204 200/793/204
f 203/794/205 183/795/205 182/796/205
f 170/797/206 200/798/206 171/799/206
f 164/800/207 205/801/207 206/802/207
f 187/803/208 205/804/208 160/805/208
f 206/806/209 180/807/209 200/808/209
f 209/809/210 207/810/210 187/811/210
f 211/812/211 168/813/211 167/814/211
f 186/815/212 214/816/212 187/817/212
f 187/818/213 214/819/213 209/820/213
f 157/821/214 169/822/214 182/823/214
f 212/824/215 215/825/215 180/826/215
f 176/827/216 216/828/216 174/829/216
f 179/830/217 216/831/217 176/832/217
f 189/833/218 197/834/218 190/835/218
f 174/836/219 217/837/219 175/838/219
f 217/839/220 212/840/220 196/841/220
f 194/842/221 164/843/221 206/844/221
f 198/845/222 161/846/222 169/847/222
f 225/848/223 220/849/223 221/850/223
f 218/851/224 223/852/224 219/853/224
f 224/854/225 218/855/225 220/856/225
f 219/857/226 225/858/226 221/859/226
f 223/860/227 224/861/227 225/862/227
f 233/863/228 228/864/228 229/865/228
f 226/866/229 231/867/229 227/868/229
f 232/869/230 226/870/230 228/871/230
f 227/872/231 233/873/231 229/874/231
f 231/875/232 232/876/232 233/877/232
f 146/878/233 148/879/233 154/880/233
f 154/881/234 148/882/234 152/883/234
f 155/884/235 152/885/235 150/886/235
f 150/887/236 146/888/236 153/889/236
f 149/890/237 156/891/237 153/892/237
f 155/893/238 156/894/238 149/895/238
f 154/896/239 155/897/239 151/898/239
f 145/899/240 153/900/240 154/901/240
f 178/902/241 173/903/241 177/904/241
f 157/905/242 179/906/242 176/907/242
f 180/908/195 181/909/195 182/910/195
f 184/911/196 185/912/196 186/913/196
f 176/914/243 175/915/243 157/916/243
f 235/917/244 242/918/244 237/919/244
f 188/920/245 189/921/245 190/922/245
f 188/923/246 239/924/246 192/925/246
f 160/926/247 159/927/247 184/928/247
f 165/929/248 194/930/248 158/931/248
f 202/932/204 200/933/204 162/934/204
f 201/935/249 163/936/249 200/937/249
f 203/938/205 204/939/205 183/940/205
f 203/941/206 171/942/206 200/943/206
f 170/944/206 201/945/206 200/946/206
f 200/947/206 204/948/206 203/949/206
f 164/950/207 160/951/207 205/952/207
f 187/953/250 207/954/250 205/955/250
f 200/956/209 202/957/209 206/958/209
f 206/959/209 205/960/209 208/961/209
f 207/962/251 208/963/251 205/964/251
f 180/965/209 183/966/209 200/967/209
f 204/968/209 200/969/209 183/970/209
f 206/971/209 208/972/209 180/973/209
f 209/974/252 208/975/252 207/976/252
f 167/977/253 210/978/253 211/979/253
f 211/980/211 212/981/211 168/982/211
f 186/983/212 213/984/212 214/985/212
f 203/986/214 182/987/214 169/988/214
f 181/989/254 215/990/254 182/991/254
f 157/992/255 172/993/255 173/994/255
f 173/995/256 178/996/256 169/997/256
f 169/998/214 171/999/214 203/1000/214
f 182/1001/214 215/1002/214 179/1003/214
f 179/1004/256 157/1005/256 182/1006/256
f 173/1007/214 169/1008/214 157/1009/214
f 215/1010/215 181/1011/215 180/1012/215
f 180/1013/215 208/1014/215 213/1015/215
f 209/1016/215 214/1017/215 208/1018/215
f 213/1019/215 212/1020/215 180/1021/215
f 211/1022/215 216/1023/215 212/1024/215
f 215/1025/215 212/1026/215 216/1027/215
f 214/1028/215 213/1029/215 208/1030/215
f 210/1031/257 174/1032/257 211/1033/257
f 216/1034/257 211/1035/257 174/1036/257
f 179/1037/258 215/1038/258 216/1039/258
f 189/1040/259 192/1041/259 193/1042/259
f 195/1043/218 197/1044/218 189/1045/218
f 185/1046/218 184/1047/218 197/1048/218
f 159/1049/259 158/1050/259 194/1051/259
f 194/1052/218 190/1053/218 197/1054/218
f 189/1055/259 193/1056/259 195/1057/259
f 197/1058/260 184/1059/260 194/1060/260
f 159/1061/260 194/1062/260 184/1063/260
f 196/1064/261 195/1065/261 193/1066/261
f 193/1067/262 241/1068/262 237/1069/262 196/1070/262
f 174/1071/263 210/1072/263 166/1073/263
f 167/1074/264 166/1075/264 210/1076/264
f 217/1077/265 236/1078/265 234/1079/265 175/1080/265
f 174/1081/263 166/1082/263 217/1083/263
f 186/1084/220 185/1085/220 213/1086/220
f 197/1087/220 196/1088/220 185/1089/220
f 166/1090/220 168/1091/220 217/1092/220
f 212/1093/220 213/1094/220 196/1095/220
f 185/1096/220 196/1097/220 213/1098/220
f 217/1099/220 168/1100/220 212/1101/220
f 206/1102/266 198/1103/266 194/1104/266
f 202/1105/266 162/1106/266 206/1107/266
f 161/1108/266 198/1109/266 162/1110/266
f 199/1111/266 191/1112/266 198/1113/266
f 194/1114/266 198/1115/266 191/1116/266
f 165/1117/267 164/1118/267 194/1119/267
f 162/1120/266 198/1121/266 206/1122/266
f 190/1123/266 194/1124/266 191/1125/266
f 178/1126/268 177/1127/268 169/1128/268
f 161/1129/269 163/1130/269 170/1131/269
f 201/1132/270 170/1133/270 163/1134/270
f 177/1135/244 172/1136/244 242/1137/244
f 198/1138/271 169/1139/271 177/1140/271
f 170/1141/222 169/1142/222 161/1143/222
f 191/1144/272 199/1145/272 188/1146/272
f 225/1147/273 224/1148/273 220/1149/273
f 218/1150/274 222/1151/274 223/1152/274
f 224/1153/275 222/1154/275 218/1155/275
f 219/1156/276 223/1157/276 225/1158/276
f 223/1159/227 222/1160/227 224/1161/227
f 233/1162/277 232/1163/277 228/1164/277
f 226/1165/278 230/1166/278 231/1167/278
f 232/1168/279 230/1169/279 226/1170/279
f 227/1171/280 231/1172/280 233/1173/280
f 231/1174/232 230/1175/232 232/1176/232
f 238/1177/244 242/1178/244 235/1179/244
f 240/1180/281 238/1181/281 199/1182/281
f 243/1183/244 237/1184/244 241/1185/244
f 235/1186/282 243/1187/282 188/1188/282 199/1189/282
f 240/1190/283 199/1191/283 198/1192/283
f 242/1193/284 240/1194/284 198/1195/284
f 240/1196/244 242/1197/244 238/1198/244
f 239/1199/285 241/1200/285 193/1201/285
f 243/1202/244 241/1203/244 239/1204/244
f 237/1205/286 236/1206/286 196/1207/286
f 243/1208/287 239/1209/287 188/1210/287
f 177/1211/288 242/1212/288 198/1213/288
f 172/1214/244 234/1215/244 242/1216/244
f 172/1217/289 177/1218/289 173/1219/289
f 235/1220/244 237/1221/244 243/1222/244
f 238/1223/290 235/1224/290 199/1225/290
f 236/1226/244 237/1227/244 234/1228/244
f 237/1229/244 242/1230/244 234/1231/244
f 236/1232/291 217/1233/291 196/1234/291
